<svg id="Layer_1" data-name="Layer 1" xmlns="http://www.w3.org/2000/svg" xmlns:xlink="http://www.w3.org/1999/xlink" viewBox="0 0 292 73.16"><defs><style>.cls-1{fill:url(#linear-gradient);}.cls-2{fill:url(#linear-gradient-2);}.cls-3{fill:url(#linear-gradient-3);}.cls-4{fill:#0080ff;}.cls-5{fill:#ffc107;}</style><linearGradient id="linear-gradient" x1="26.84" y1="66.55" x2="40.07" y2="66.55" gradientUnits="userSpaceOnUse"><stop offset="0" stop-color="#4285f4"/><stop offset="1" stop-color="#0d47a1"/></linearGradient><linearGradient id="linear-gradient-2" x1="55.01" y1="66.55" x2="68.23" y2="66.55" xlink:href="#linear-gradient"/><linearGradient id="linear-gradient-3" x1="40" y1="66.79" x2="121.03" y2="66.79" xlink:href="#linear-gradient"/></defs><title>ecart-banner</title><circle class="cls-1" cx="33.46" cy="66.55" r="6.61"/><circle class="cls-2" cx="61.62" cy="66.55" r="6.61"/><path class="cls-3" d="M119.65,50.27a2.58,2.58,0,0,0-.4,0l-61.44-.92L56.13,44.2a8.4,8.4,0,0,0-8-5.78H41.81a1.81,1.81,0,1,0,0,3.61h6.34a4.8,4.8,0,0,1,4.55,3.31l2.13,6.43,9.83,29.68-.89,2.15a8.37,8.37,0,0,0,4.54,10.93,8.68,8.68,0,0,0,3.23.63h36.67a1.81,1.81,0,1,0,0-3.61H71.54a4.76,4.76,0,0,1-4.79-4.72A5,5,0,0,1,67.12,85l.68-1.68,39.69-4.06a10.32,10.32,0,0,0,9-7.84L121,52.46A1.8,1.8,0,0,0,119.65,50.27Zm-6.71,20.27a6.64,6.64,0,0,1-5.81,5.07l-39.27,4L59,52.94l57.92.87Z" transform="translate(-40 -38.42)"/><path class="cls-4" d="M170.33,76.71H150.7V92.76h22.8v4.89H144.73V52.35h28.46v4.89H150.7V71.83h19.63Z" transform="translate(-40 -38.42)"/><path class="cls-5" d="M214.25,83.27c-.56,4.8-2.32,8.49-5.3,11.1s-6.93,3.9-11.87,3.9a15.94,15.94,0,0,1-12.86-5.76q-4.84-5.74-4.84-15.39V72.76a25.75,25.75,0,0,1,2.26-11.11A16.8,16.8,0,0,1,188,54.3a17.81,17.81,0,0,1,9.58-2.57q7.21,0,11.57,4t5.07,11.15h-6c-.52-3.62-1.64-6.24-3.38-7.86a10.21,10.21,0,0,0-7.26-2.44,10.69,10.69,0,0,0-9,4.24q-3.25,4.23-3.25,12.05v4.39q0,7.38,3.08,11.74a10,10,0,0,0,8.61,4.36c3.32,0,5.87-.76,7.64-2.26s2.95-4.12,3.53-7.86Z" transform="translate(-40 -38.42)"/><path class="cls-5" d="M247.42,85.79h-19l-4.26,11.86H218l17.29-45.3h5.23l17.33,45.3h-6.13Zm-17.18-4.88h15.4l-7.71-21.18Z" transform="translate(-40 -38.42)"/><path class="cls-5" d="M280.58,79.32H269.94V97.65h-6V52.35h15q7.65,0,11.77,3.49T294.83,66a12.21,12.21,0,0,1-2.29,7.37,13.7,13.7,0,0,1-6.36,4.7l10.64,19.22v.38h-6.41Zm-10.64-4.88h9.18a10.33,10.33,0,0,0,7.07-2.31A7.76,7.76,0,0,0,288.82,66a8.22,8.22,0,0,0-2.5-6.45q-2.51-2.23-7.24-2.27h-9.14Z" transform="translate(-40 -38.42)"/><path class="cls-5" d="M332,57.24H317.44V97.65H311.5V57.24H297V52.35h35Z" transform="translate(-40 -38.42)"/></svg>